<svg width="24" height="24" xmlns="http://www.w3.org/2000/svg"><path fill="currentColor" d="M12 .943A10.648 10.648 0 0 0 1.352 11.592 10.648 10.648 0 0 0 12 22.24a10.648 10.648 0 0 0 10.648-10.648A10.648 10.648 0 0 0 12 .943zm0 2.315c.141 0 .268.03.379.092a.914.914 0 0 1 .299.28l3.732 5.843a.896.896 0 0 1 .082.213.814.814 0 0 1-.191.781.756.756 0 0 1-.588.242H8.287a.754.754 0 0 1-.588-.242.827.827 0 0 1-.191-.781.853.853 0 0 1 .082-.213l3.732-5.842a.915.915 0 0 1 .3-.281.765.765 0 0 1 .378-.092zm-3.713 9.215h7.426c.245 0 .441.08.588.242a.827.827 0 0 1 .191.781.853.853 0 0 1-.082.213l-3.732 5.842a.915.915 0 0 1-.3.281.765.765 0 0 1-.378.092.765.765 0 0 1-.379-.092.914.914 0 0 1-.299-.281L7.59 13.709a.896.896 0 0 1-.082-.213.819.819 0 0 1 .191-.781.756.756 0 0 1 .588-.242z"/></svg>
