<svg width="24" height="24" xmlns="http://www.w3.org/2000/svg"><path fill="currentColor" d="M12 1.352A10.648 10.648 0 0 0 1.352 12 10.648 10.648 0 0 0 12 22.648 10.648 10.648 0 0 0 22.648 12 10.648 10.648 0 0 0 12 1.352zm0 6.921c.141 0 .268.032.379.094a.907.907 0 0 1 .299.28l3.732 5.843a.896.896 0 0 1 .082.213.819.819 0 0 1-.191.781.756.756 0 0 1-.588.243H8.287a.755.755 0 0 1-.588-.245.822.822 0 0 1-.191-.78.84.84 0 0 1 .082-.212l3.732-5.844a.908.908 0 0 1 .3-.279.766.766 0 0 1 .378-.094z"/></svg>
